<svg width="440" height="450" viewBox="0 0 440 450" fill="none" xmlns="http://www.w3.org/2000/svg">
<path d="M360 0H165C143.78 0 123.43 8.43 108.43 23.43L23.43 108.43C8.43 123.44 0 143.78 0 165V370C0 414.18 35.82 450 80 450H275C296.22 450 316.57 441.57 331.57 426.57L416.57 341.57C431.57 326.57 440 306.22 440 285V80C440 35.82 404.18 0 360 0Z" fill="#FED100"/>
<path d="M310 77.07H280C274.477 77.07 270 81.5472 270 87.07V117.07C270 122.593 274.477 127.07 280 127.07H310C315.523 127.07 320 122.593 320 117.07V87.07C320 81.5472 315.523 77.07 310 77.07Z" fill="black"/>
<path d="M310 137.07H280C274.477 137.07 270 141.547 270 147.07V177.07C270 182.593 274.477 187.07 280 187.07H310C315.523 187.07 320 182.593 320 177.07V147.07C320 141.547 315.523 137.07 310 137.07Z" fill="black"/>
<path d="M310 197.07H280C274.477 197.07 270 201.547 270 207.07V237.07C270 242.593 274.477 247.07 280 247.07H310C315.523 247.07 320 242.593 320 237.07V207.07C320 201.547 315.523 197.07 310 197.07Z" fill="black"/>
<path d="M130 257.07H100C94.4772 257.07 90 261.547 90 267.07V297.07C90 302.593 94.4772 307.07 100 307.07H130C135.523 307.07 140 302.593 140 297.07V267.07C140 261.547 135.523 257.07 130 257.07Z" fill="black"/>
<path d="M310 257.07H280C274.477 257.07 270 261.547 270 267.07V297.07C270 302.593 274.477 307.07 280 307.07H310C315.523 307.07 320 302.593 320 297.07V267.07C320 261.547 315.523 257.07 310 257.07Z" fill="black"/>
<path d="M190 317.07H160C154.477 317.07 150 321.547 150 327.07V357.07C150 362.593 154.477 367.07 160 367.07H190C195.523 367.07 200 362.593 200 357.07V327.07C200 321.547 195.523 317.07 190 317.07Z" fill="black"/>
<path d="M250 317.07H220C214.477 317.07 210 321.547 210 327.07V357.07C210 362.593 214.477 367.07 220 367.07H250C255.523 367.07 260 362.593 260 357.07V327.07C260 321.547 255.523 317.07 250 317.07Z" fill="black"/>
</svg>
